<svg width="20" height="20" viewBox="0 0 20 20" fill="none" xmlns="http://www.w3.org/2000/svg">
<g id="elements">
<path id="Vector" d="M18.3333 5.74996C18.7475 5.74996 19.0833 5.41417 19.0833 4.99996C19.0833 4.58575 18.7475 4.24996 18.3333 4.24996V5.74996ZM11.6666 4.24996C11.2524 4.24996 10.9166 4.58575 10.9166 4.99996C10.9166 5.41417 11.2524 5.74996 11.6666 5.74996V4.24996ZM15.75 1.66663C15.75 1.25241 15.4142 0.916626 15 0.916626C14.5857 0.916626 14.25 1.25241 14.25 1.66663H15.75ZM14.25 8.33329C14.25 8.74751 14.5857 9.08329 15 9.08329C15.4142 9.08329 15.75 8.74751 15.75 8.33329H14.25ZM18.3333 4.24996H15V5.74996H18.3333V4.24996ZM15 4.24996H11.6666V5.74996H15V4.24996ZM14.25 1.66663V4.99996H15.75V1.66663H14.25ZM14.25 4.99996V8.33329H15.75V4.99996H14.25Z" fill="#7A7A7A"/>
<path id="Rectangle 2109" d="M9.58329 2.5C5.85134 2.5 3.98536 2.5 2.82599 3.65937C1.66663 4.81874 1.66663 6.68471 1.66663 10.4167C1.66663 14.1486 1.66663 16.0146 2.82599 17.174C3.98536 18.3333 5.85134 18.3333 9.58329 18.3333C13.3152 18.3333 15.1812 18.3333 16.3406 17.174C17.5 16.0146 17.5 14.1486 17.5 10.4167V10" stroke="#7A7A7A" stroke-width="1.5" stroke-linecap="round"/>
<path id="Vector 6711" d="M4.16663 17.4999C7.67494 13.5405 11.6176 8.2895 17.5 12.2278" stroke="#7A7A7A" stroke-width="1.5"/>
</g>
</svg>
