<svg width="20" height="20" viewBox="0 0 20 20" fill="none" xmlns="http://www.w3.org/2000/svg">
<g id="elements">
<path id="Rectangle 17762" d="M0.833344 9.45002C0.833344 8.38828 1.05493 8.16669 2.11668 8.16669H17.8833C18.9451 8.16669 19.1667 8.38828 19.1667 9.45002V10.55C19.1667 11.6118 18.9451 11.8334 17.8833 11.8334H2.11668C1.05493 11.8334 0.833344 11.6118 0.833344 10.55V9.45002Z" stroke="#4063FC" stroke-width="1.5" stroke-linecap="round"/>
<path id="Rectangle 17763" d="M0.833344 2.11668C0.833344 1.05493 1.05493 0.833344 2.11668 0.833344H17.8833C18.9451 0.833344 19.1667 1.05493 19.1667 2.11668V3.21668C19.1667 4.27842 18.9451 4.50001 17.8833 4.50001H2.11668C1.05493 4.50001 0.833344 4.27842 0.833344 3.21668V2.11668Z" stroke="#4063FC" stroke-width="1.5" stroke-linecap="round"/>
<path id="Rectangle 17764" d="M0.833344 16.7833C0.833344 15.7216 1.05493 15.5 2.11668 15.5H17.8833C18.9451 15.5 19.1667 15.7216 19.1667 16.7833V17.8833C19.1667 18.9451 18.9451 19.1667 17.8833 19.1667H2.11668C1.05493 19.1667 0.833344 18.9451 0.833344 17.8833V16.7833Z" stroke="#4063FC" stroke-width="1.5" stroke-linecap="round"/>
</g>
</svg>
