<svg width="16" height="22" viewBox="0 0 16 22" fill="none" xmlns="http://www.w3.org/2000/svg">
<g id="elements">
<path id="Rectangle 2104" d="M1 14C1 10.134 4.02208 7 7.75 7H8.25C11.9779 7 15 10.134 15 14C15 17.866 11.9779 21 8.25 21H7.75C4.02208 21 1 17.866 1 14Z" fill="#FDB022" stroke="#D7961D" stroke-width="1.5"/>
<path id="Vector" d="M6.49982 12.1179C6.58019 11.3326 7.10736 11 7.65733 11H8.32366C8.87363 11 9.4008 11.3326 9.48117 12.1179C9.50603 12.3609 9.50603 12.6392 9.48117 12.8821C9.4149 13.5297 8.97109 14 8.49024 14M6.49982 15.8821C6.58019 16.6675 7.10736 17 7.65733 17L8.32366 17C8.87363 17 9.4008 16.6675 9.48117 15.8821C9.50603 15.6392 9.50603 15.3609 9.48117 15.1179C9.4149 14.4704 8.97109 14 8.49024 14M8.49024 14H8.43079" stroke="white" stroke-width="1.3" stroke-linecap="round"/>
<path id="Vector_2" d="M9.56006 1L7 6.89783M14 1L11.1786 7.5" stroke="#D7961D" stroke-width="1.5" stroke-linecap="round"/>
<path id="Vector_3" d="M6.43994 1L8 4.59405M2 1L4.82144 7.5" stroke="#D7961D" stroke-width="1.5" stroke-linecap="round"/>
</g>
</svg>
