<svg width="16" height="22" viewBox="0 0 16 22" fill="none" xmlns="http://www.w3.org/2000/svg">
<g id="elements">
<path id="Rectangle 2104" d="M1 14C1 10.134 4.02208 7 7.75 7H8.25C11.9779 7 15 10.134 15 14C15 17.866 11.9779 21 8.25 21H7.75C4.02208 21 1 17.866 1 14Z" fill="#FDB022" stroke="#D7961D" stroke-width="1.5"/>
<path id="Vector" d="M8.5 16.9994V11.9481C8.5 11.3736 8.5 11.0863 8.26959 11.0149C7.76306 10.8577 7 11.999 7 11.999M8.5 16.9994H7M8.5 16.9994H10" stroke="#FFF7E9" stroke-width="1.5" stroke-linecap="round" stroke-linejoin="round"/>
<path id="Vector_2" d="M9.56006 1L7 6.89783M14 1L11.1786 7.5" stroke="#D7961D" stroke-width="1.5" stroke-linecap="round"/>
<path id="Vector_3" d="M6.43994 1L8 4.59405M2 1L4.82144 7.5" stroke="#D7961D" stroke-width="1.5" stroke-linecap="round"/>
</g>
</svg>
