<svg width="16" height="22" viewBox="0 0 16 22" fill="none" xmlns="http://www.w3.org/2000/svg">
<g id="elements">
<path id="Rectangle 2104" d="M1 14C1 10.134 4.02208 7 7.75 7H8.25C11.9779 7 15 10.134 15 14C15 17.866 11.9779 21 8.25 21H7.75C4.02208 21 1 17.866 1 14Z" fill="#FDB022" stroke="#D7961D" stroke-width="1.5"/>
<path id="Vector" d="M6.50004 12.118C6.58041 11.3327 7.10758 11.0001 7.65755 11.0001H8.32387C8.87385 11.0001 9.40102 11.3327 9.48139 12.118C9.50625 12.3609 9.50625 12.6393 9.48139 12.8822C9.43246 13.3603 8.85429 13.9087 8.85429 13.9087L8 14.5001C8 14.5001 6.5 15.5001 6.5 16.5001C6.50002 17.0395 6.93727 17.0001 7.47665 17.0001H9.48139" stroke="white" stroke-width="1.3" stroke-linecap="round"/>
<path id="Vector_2" d="M9.56006 1L7 6.89783M14 1L11.1786 7.5" stroke="#D7961D" stroke-width="1.5" stroke-linecap="round"/>
<path id="Vector_3" d="M6.43994 1L8 4.59405M2 1L4.82144 7.5" stroke="#D7961D" stroke-width="1.5" stroke-linecap="round"/>
</g>
</svg>
