<svg width="21" height="18" viewBox="0 0 21 18" fill="none" xmlns="http://www.w3.org/2000/svg">
<g id="elements">
<path id="Vector" d="M4.4984 12.0217C3.34563 12.6974 0.323122 14.0771 2.16403 15.8035C3.0633 16.6469 4.06485 17.25 5.32405 17.25H12.5093C13.7685 17.25 14.7701 16.6469 15.6693 15.8035C17.5102 14.0771 14.4877 12.6974 13.3349 12.0217C10.6317 10.4372 7.20164 10.4372 4.4984 12.0217Z" stroke="#5AD3BD" stroke-width="1.5" strokeLinecap="round" strokeLinejoin="round"/>
<path id="Ellipse 1381" d="M12.5833 4.41667C12.5833 6.44171 10.9417 8.08333 8.91667 8.08333C6.89162 8.08333 5.25 6.44171 5.25 4.41667C5.25 2.39162 6.89162 0.75 8.91667 0.75C10.9417 0.75 12.5833 2.39162 12.5833 4.41667Z" stroke="#5AD3BD" stroke-width="1.5"/>
<path id="Vector 6662" d="M15.3333 3.2381C15.3333 3.2381 16.25 3.71608 16.7083 4.41667C16.7083 4.41667 18.0833 1.66667 19.9167 0.75" stroke="#5AD3BD" stroke-width="1.5" strokeLinecap="round" strokeLinejoin="round"/>
</g>
</svg>
