<svg width="21" height="18" viewBox="0 0 21 18" fill="none" xmlns="http://www.w3.org/2000/svg">
<g id="elements">
<path id="Vector" d="M16.5647 16.3333H17.0141C18.0681 16.3333 18.9065 15.8531 19.6592 15.1816C21.5715 13.4757 17.0763 11.75 15.5417 11.75M13.7083 2.64638C13.9165 2.60509 14.1326 2.58334 14.3544 2.58334C16.0226 2.58334 17.375 3.81456 17.375 5.33334C17.375 6.85213 16.0226 8.08334 14.3544 8.08334C14.1326 8.08334 13.9165 8.06159 13.7083 8.02031" stroke="#1790FC" stroke-width="1.5" strokeLinecap="round"/>
<g id="Vector_2">
<path d="M3.60787 12.7686C2.52714 13.3478 -0.306458 14.5303 1.41939 16.0101C2.26246 16.733 3.20142 17.25 4.38191 17.25H11.1181C12.2986 17.25 13.2375 16.733 14.0806 16.0101C15.8065 14.5303 12.9729 13.3478 11.8921 12.7686C9.35784 11.4105 6.14216 11.4105 3.60787 12.7686Z" stroke="#1790FC" stroke-width="1.5"/>
<path d="M11.4167 4.87501C11.4167 6.90005 9.77504 8.54168 7.75 8.54168C5.72496 8.54168 4.08333 6.90005 4.08333 4.87501C4.08333 2.84997 5.72496 1.20834 7.75 1.20834C9.77504 1.20834 11.4167 2.84997 11.4167 4.87501Z" stroke="#1790FC" stroke-width="1.5"/>
</g>
</g>
</svg>
