<svg width="20" height="18" viewBox="0 0 20 18" fill="none" xmlns="http://www.w3.org/2000/svg">
<g id="elements">
<path id="Vector" d="M3.74837 12.0217C2.5956 12.6974 -0.426909 14.0771 1.414 15.8035C2.31327 16.6469 3.31482 17.25 4.57402 17.25H11.7593C13.0185 17.25 14.02 16.6469 14.9193 15.8035C16.7602 14.0771 13.7377 12.6974 12.5849 12.0217C9.88168 10.4372 6.45161 10.4372 3.74837 12.0217Z" stroke="#EB2F96" stroke-width="1.5" strokeLinecap="round" strokeLinejoin="round"/>
<path id="Ellipse 1381" d="M11.8333 4.41667C11.8333 6.44171 10.1917 8.08333 8.16667 8.08333C6.14162 8.08333 4.5 6.44171 4.5 4.41667C4.5 2.39162 6.14162 0.75 8.16667 0.75C10.1917 0.75 11.8333 2.39162 11.8333 4.41667Z" stroke="#EB2F96" stroke-width="1.5"/>
<path id="Vector_2" d="M19.1666 2.125L16.875 4.41667M16.875 4.41667L14.5833 6.70833M16.875 4.41667L19.1666 6.70833M16.875 4.41667L14.5833 2.125" stroke="#EB2F96" stroke-width="1.5" strokeLinecap="round" strokeLinejoin="round"/>
</g>
</svg>
